<svg xmlns="http://www.w3.org/2000/svg" width="1420" height="820" viewBox="0 0 1420 820" role="img" aria-labelledby="title desc">
  <title id="title">SaQshi Service Architecture</title>
  <desc id="desc">SaQshi service architecture showing browser UI pages, shared UI shell, API endpoints, core helpers, service layer, data stores, reports, events and support services.</desc>
  <defs>
    <style>
      .title { font: 700 30px Arial, sans-serif; fill: #0f2f57; }
      .subtitle { font: 400 16px Arial, sans-serif; fill: #52627a; }
      .section { font: 700 18px Arial, sans-serif; fill: #0f172a; }
      .label { font: 700 14px Arial, sans-serif; fill: #0f172a; }
      .small { font: 400 12.5px Arial, sans-serif; fill: #334155; }
      .tiny { font: 400 11.5px Arial, sans-serif; fill: #475569; }
      .white { fill: #ffffff; font: 700 13px Arial, sans-serif; }
      .bar { fill: #f1f5f9; stroke: #cbd5e1; stroke-width: 1; }
      .box { fill: #ffffff; stroke: #94a3b8; stroke-width: 1.2; }
      .blue { fill: #dbeafe; stroke: #60a5fa; stroke-width: 1.2; }
      .deepBlue { fill: #2f6fed; stroke: #1d4ed8; stroke-width: 1.2; }
      .green { fill: #dcfce7; stroke: #86efac; stroke-width: 1.2; }
      .orange { fill: #ffedd5; stroke: #fdba74; stroke-width: 1.2; }
      .purple { fill: #ede9fe; stroke: #a78bfa; stroke-width: 1.2; }
      .cyan { fill: #cffafe; stroke: #67e8f9; stroke-width: 1.2; }
      .grey { fill: #f8fafc; stroke: #cbd5e1; stroke-width: 1.2; }
      .data { fill: #eef2ff; stroke: #818cf8; stroke-width: 1.2; }
      .line { stroke: #94a3b8; stroke-width: 1.8; fill: none; marker-end: url(#arrow); }
      .strongLine { stroke: #2563eb; stroke-width: 2.4; fill: none; marker-end: url(#arrowBlue); }
      .dashLine { stroke: #64748b; stroke-width: 1.8; stroke-dasharray: 6 6; fill: none; marker-end: url(#arrow); }
    </style>
    <marker id="arrow" viewBox="0 0 10 10" refX="9" refY="5" markerWidth="7" markerHeight="7" orient="auto">
      <path d="M 0 0 L 10 5 L 0 10 z" fill="#64748b"/>
    </marker>
    <marker id="arrowBlue" viewBox="0 0 10 10" refX="9" refY="5" markerWidth="7" markerHeight="7" orient="auto">
      <path d="M 0 0 L 10 5 L 0 10 z" fill="#2563eb"/>
    </marker>
  </defs>

  <rect width="1420" height="820" fill="#ffffff"/>
  <text x="710" y="34" text-anchor="middle" class="title">SaQshi Service Architecture</text>
  <text x="710" y="58" text-anchor="middle" class="subtitle">Browser UI, API endpoints, core helpers, PHP service layer, JSON configuration, database and reports</text>

  <!-- Presentation -->
  <rect x="40" y="92" width="1340" height="128" rx="12" class="grey"/>
  <text x="60" y="122" class="section">1. Presentation Layer</text>

  <rect x="72" y="145" width="132" height="54" rx="6" class="blue"/>
  <text x="138" y="167" text-anchor="middle" class="label">Login</text>
  <text x="138" y="187" text-anchor="middle" class="tiny">Auth entry</text>

  <rect x="226" y="145" width="132" height="54" rx="6" class="blue"/>
  <text x="292" y="167" text-anchor="middle" class="label">Dashboard</text>
  <text x="292" y="187" text-anchor="middle" class="tiny">Role landing</text>

  <rect x="380" y="145" width="132" height="54" rx="6" class="blue"/>
  <text x="446" y="167" text-anchor="middle" class="label">Assessment</text>
  <text x="446" y="187" text-anchor="middle" class="tiny">Create/checklist</text>

  <rect x="534" y="145" width="132" height="54" rx="6" class="blue"/>
  <text x="600" y="167" text-anchor="middle" class="label">CQI</text>
  <text x="600" y="187" text-anchor="middle" class="tiny">Gap/action/closure</text>

  <rect x="688" y="145" width="132" height="54" rx="6" class="blue"/>
  <text x="754" y="167" text-anchor="middle" class="label">Performance</text>
  <text x="754" y="187" text-anchor="middle" class="tiny">KPI/outcome</text>

  <rect x="842" y="145" width="132" height="54" rx="6" class="blue"/>
  <text x="908" y="167" text-anchor="middle" class="label">State Monitor</text>
  <text x="908" y="187" text-anchor="middle" class="tiny">Admin analytics</text>

  <rect x="996" y="145" width="132" height="54" rx="6" class="blue"/>
  <text x="1062" y="167" text-anchor="middle" class="label">Reports</text>
  <text x="1062" y="187" text-anchor="middle" class="tiny">Downloads</text>

  <rect x="1150" y="145" width="132" height="54" rx="6" class="blue"/>
  <text x="1216" y="167" text-anchor="middle" class="label">GitBook</text>
  <text x="1216" y="187" text-anchor="middle" class="tiny">Docs/help</text>

  <!-- Shared UI shell -->
  <rect x="40" y="245" width="1340" height="70" rx="10" class="bar"/>
  <text x="60" y="274" class="section">2. Shared UI Shell</text>
  <rect x="226" y="263" width="118" height="34" rx="5" class="grey"/>
  <text x="285" y="285" text-anchor="middle" class="small">Header</text>
  <rect x="366" y="263" width="118" height="34" rx="5" class="grey"/>
  <text x="425" y="285" text-anchor="middle" class="small">Sidebar</text>
  <rect x="506" y="263" width="118" height="34" rx="5" class="grey"/>
  <text x="565" y="285" text-anchor="middle" class="small">Router</text>
  <rect x="646" y="263" width="118" height="34" rx="5" class="grey"/>
  <text x="705" y="285" text-anchor="middle" class="small">API Client</text>
  <rect x="786" y="263" width="118" height="34" rx="5" class="grey"/>
  <text x="845" y="285" text-anchor="middle" class="small">Loader</text>
  <rect x="926" y="263" width="118" height="34" rx="5" class="grey"/>
  <text x="985" y="285" text-anchor="middle" class="small">Accessibility</text>
  <rect x="1066" y="263" width="118" height="34" rx="5" class="grey"/>
  <text x="1125" y="285" text-anchor="middle" class="small">Chat Help</text>

  <!-- API layer -->
  <rect x="40" y="345" width="1340" height="78" rx="10" class="orange"/>
  <text x="60" y="376" class="section">3. API Controller Layer - api/&lt;module&gt;/v1</text>
  <text x="316" y="377" class="small">Auth</text>
  <text x="416" y="377" class="small">Assessment</text>
  <text x="548" y="377" class="small">CQI</text>
  <text x="626" y="377" class="small">Performance</text>
  <text x="770" y="377" class="small">Certification</text>
  <text x="910" y="377" class="small">State</text>
  <text x="1000" y="377" class="small">Reports</text>
  <text x="1100" y="377" class="small">Files</text>
  <text x="1184" y="377" class="small">Admin/Profile</text>
  <text x="60" y="402" class="tiny">Endpoints validate request, load session/role context, call service classes and return structured JSON or report files.</text>

  <!-- Core helpers -->
  <rect x="40" y="452" width="240" height="220" rx="12" class="purple"/>
  <text x="160" y="482" text-anchor="middle" class="section">4. Core Helpers</text>
  <rect x="68" y="512" width="184" height="28" rx="4" class="box"/>
  <text x="160" y="531" text-anchor="middle" class="small">Auth + RBAC</text>
  <rect x="68" y="550" width="184" height="28" rx="4" class="box"/>
  <text x="160" y="569" text-anchor="middle" class="small">Session + CSRF</text>
  <rect x="68" y="588" width="184" height="28" rx="4" class="box"/>
  <text x="160" y="607" text-anchor="middle" class="small">Security + Validation</text>
  <rect x="68" y="626" width="184" height="28" rx="4" class="box"/>
  <text x="160" y="645" text-anchor="middle" class="small">Response + Bootstrap</text>

  <!-- Service layer -->
  <rect x="320" y="452" width="780" height="220" rx="12" class="green"/>
  <text x="710" y="482" text-anchor="middle" class="section">5. PHP Service Layer - api/service</text>

  <rect x="350" y="515" width="128" height="42" rx="5" class="deepBlue"/>
  <text x="414" y="541" text-anchor="middle" class="white">Auth Service</text>
  <rect x="492" y="515" width="128" height="42" rx="5" class="deepBlue"/>
  <text x="556" y="541" text-anchor="middle" class="white">Assessment</text>
  <rect x="634" y="515" width="128" height="42" rx="5" class="deepBlue"/>
  <text x="698" y="541" text-anchor="middle" class="white">CQI Service</text>
  <rect x="776" y="515" width="128" height="42" rx="5" class="deepBlue"/>
  <text x="840" y="541" text-anchor="middle" class="white">Performance</text>
  <rect x="918" y="515" width="128" height="42" rx="5" class="deepBlue"/>
  <text x="982" y="541" text-anchor="middle" class="white">Certification</text>

  <rect x="350" y="585" width="128" height="42" rx="5" class="deepBlue"/>
  <text x="414" y="611" text-anchor="middle" class="white">State Service</text>
  <rect x="492" y="585" width="128" height="42" rx="5" class="deepBlue"/>
  <text x="556" y="611" text-anchor="middle" class="white">Report Service</text>
  <rect x="634" y="585" width="128" height="42" rx="5" class="deepBlue"/>
  <text x="698" y="611" text-anchor="middle" class="white">Formula Engine</text>
  <rect x="776" y="585" width="128" height="42" rx="5" class="deepBlue"/>
  <text x="840" y="611" text-anchor="middle" class="white">Indicator Rules</text>
  <rect x="918" y="585" width="128" height="42" rx="5" class="deepBlue"/>
  <text x="982" y="611" text-anchor="middle" class="white">Chat Assistant</text>

  <!-- Data and support -->
  <rect x="1140" y="452" width="240" height="220" rx="12" class="cyan"/>
  <text x="1260" y="482" text-anchor="middle" class="section">6. Data + Support</text>
  <rect x="1168" y="512" width="184" height="28" rx="4" class="data"/>
  <text x="1260" y="531" text-anchor="middle" class="small">MySQL / MariaDB</text>
  <rect x="1168" y="550" width="184" height="28" rx="4" class="data"/>
  <text x="1260" y="569" text-anchor="middle" class="small">JSON Configuration</text>
  <rect x="1168" y="588" width="184" height="28" rx="4" class="data"/>
  <text x="1260" y="607" text-anchor="middle" class="small">File/Evidence Storage</text>
  <rect x="1168" y="626" width="184" height="28" rx="4" class="data"/>
  <text x="1260" y="645" text-anchor="middle" class="small">Logs + Events + Backups</text>

  <!-- Outputs -->
  <rect x="320" y="710" width="780" height="62" rx="10" class="grey"/>
  <text x="710" y="736" text-anchor="middle" class="section">7. Outputs and Extension Points</text>
  <text x="710" y="758" text-anchor="middle" class="small">Dashboards, Excel/PDF reports, event log, audit trail, notifications and future integrations</text>

  <!-- Flow lines -->
  <line x1="710" y1="220" x2="710" y2="245" class="strongLine"/>
  <line x1="710" y1="315" x2="710" y2="345" class="strongLine"/>
  <line x1="710" y1="423" x2="710" y2="452" class="strongLine"/>
  <line x1="280" y1="562" x2="320" y2="562" class="line"/>
  <line x1="1100" y1="562" x2="1140" y2="562" class="line"/>
  <line x1="710" y1="672" x2="710" y2="710" class="strongLine"/>
  <path d="M1260 672 C1260 730 1100 740 1100 740" class="dashLine"/>
  <path d="M160 672 C160 730 320 740 320 740" class="dashLine"/>
</svg>
